<?xml version="1.0" encoding="UTF-8"?>
<svg width="231px" height="67px" viewBox="0 0 231 67" version="1.1" xmlns="http://www.w3.org/2000/svg" xmlns:xlink="http://www.w3.org/1999/xlink">
    <!-- Generator: Sketch 63.1 (92452) - https://sketch.com -->
    <title>Group 2</title>
    <desc>Created with Sketch.</desc>
    <g id="Page-1" stroke="none" stroke-width="1" fill="none" fill-rule="evenodd">
        <g id="Desktop-HD" transform="translate(-48.000000, -48.000000)">
            <g id="Info" transform="translate(48.000000, 48.000000)">
                <g id="Group-2" transform="translate(-0.000200, 0.000400)">
                    <path d="M218.301,40.53 L213.259,40.53 L215.327,12.282 L215.844,12.282 L218.301,40.53 Z M211.772,58.371 L212.419,49.386 L219.141,49.386 L219.917,58.371 L230.453,58.371 L225.153,2.844 L206.342,2.844 L200.977,58.371 L211.772,58.371 Z M199.002,58.371 L199.002,48.933 L187.56,48.933 L187.56,2.844 L176.442,2.844 L176.442,58.371 L199.002,58.371 Z M148.144,66.257 C150.126,66.257 151.58,65.816 152.507,64.932 C153.433,64.049 154.048,62.68 154.349,60.827 L163.14,11.053 L152.28,11.053 L149.759,34.131 L148.531,45.895 L147.497,34.131 L145.364,11.053 L134.569,11.053 L141.938,57.402 C141.981,57.574 142.003,57.811 142.003,58.113 C142.003,58.759 141.615,59.082 140.839,59.082 L135.409,59.082 L135.409,66.257 L148.144,66.257 Z M117.791,50.097 C116.11,50.097 115.27,48.697 115.27,45.895 L115.27,39.819 C115.27,38.052 115.669,36.673 116.466,35.682 C117.263,34.691 118.502,33.872 120.183,33.226 L120.183,46.412 C120.183,47.447 119.999,48.319 119.633,49.03 C119.267,49.741 118.653,50.097 117.791,50.097 L117.791,50.097 Z M113.331,58.888 C115.011,58.888 116.466,58.349 117.694,57.272 C118.922,56.195 119.816,54.686 120.377,52.747 L120.377,58.371 L131.624,58.371 L131.624,22.301 C131.624,18.552 130.396,15.654 127.94,13.607 C125.483,11.56 122.294,10.536 118.373,10.536 C113.46,10.536 109.915,11.528 107.739,13.51 C105.563,15.492 104.475,18.811 104.475,23.465 L104.475,25.016 L115.464,25.016 L115.464,22.172 C115.464,21.224 115.69,20.47 116.142,19.909 C116.595,19.349 117.123,19.069 117.726,19.069 C118.416,19.069 119.009,19.403 119.504,20.071 C119.999,20.739 120.247,21.698 120.247,22.947 L120.247,27.796 L117.144,28.83 C113.611,29.95 110.982,30.974 109.258,31.901 C107.534,32.827 106.188,34.281 105.218,36.264 C104.249,38.246 103.764,41.09 103.764,44.797 C103.764,49.321 104.443,52.801 105.8,55.236 C107.157,57.671 109.668,58.888 113.331,58.888 L113.331,58.888 Z M85.822,48.546 L83.883,48.546 L83.883,12.54 L85.111,12.54 C86.189,12.54 86.986,12.648 87.503,12.863 C88.02,13.079 88.376,13.499 88.57,14.124 C88.763,14.749 88.861,15.686 88.861,16.936 L88.861,45.572 C88.861,47.554 87.848,48.546 85.822,48.546 L85.822,48.546 Z M87.632,58.371 C92.114,58.371 95.324,56.992 97.264,54.234 C99.203,51.476 100.151,47.361 100.108,41.887 L99.979,15.902 C99.936,11.593 98.923,8.339 96.941,6.141 C94.958,3.943 91.985,2.844 88.02,2.844 L72.7,2.844 L72.7,58.371 L87.632,58.371 Z M69.432,58.371 L69.432,49.903 L58.184,49.903 L69.303,18.746 L69.303,11.053 L46.355,11.053 L46.355,19.974 L57.603,19.974 L45.838,51.454 L45.838,58.371 L69.432,58.371 Z M31.063,58.37 L42.376,58.37 L42.376,11.053 L31.063,11.053 L31.063,58.37 Z M31.063,7.886 L42.376,7.886 L42.376,0 L31.063,0 L31.063,7.886 Z M11.959,48.61 L10.86,48.546 L10.86,32.45 L12.928,32.45 C14.178,32.45 15.051,32.881 15.547,33.743 C16.042,34.605 16.29,35.876 16.29,37.556 L16.29,44.473 C16.29,47.231 14.846,48.61 11.959,48.61 L11.959,48.61 Z M13.122,23.723 L10.86,23.723 L10.86,11.377 L13.187,11.377 C14.781,11.377 15.579,12.282 15.579,14.092 L15.579,19.651 C15.579,20.944 15.406,21.946 15.062,22.657 C14.717,23.368 14.071,23.723 13.122,23.723 L13.122,23.723 Z M15.062,58.371 C19.673,58.371 22.862,56.852 24.629,53.814 C26.395,50.776 27.279,46.304 27.279,40.401 C27.279,36.781 26.805,33.872 25.857,31.674 C24.908,29.476 23.271,28.076 20.944,27.472 C24.736,26.438 26.633,23.271 26.633,17.97 L26.633,15.514 C26.633,11.032 25.717,7.8 23.885,5.818 C22.053,3.835 19.113,2.844 15.062,2.844 L0,2.844 L0,58.371 L15.062,58.371 Z" id="Fill-2" fill="#FFFFFF"></path>
                    <polygon id="Fill-3" fill="#FF3333" points="160.9562 58.1126 172.2692 58.1126 172.2692 48.6746 160.9562 48.6746"></polygon>
                </g>
            </g>
        </g>
    </g>
</svg>