<?xml version="1.0" encoding="UTF-8"?>
<svg width="1440px" height="1024px" viewBox="0 0 1440 1024" version="1.1" xmlns="http://www.w3.org/2000/svg" xmlns:xlink="http://www.w3.org/1999/xlink">
    <title>Desktop HD</title>
    <defs>
        <polygon id="path-1" points="0.9819 0 483 0 483 357.6433 0.9819 357.6433"></polygon>
    </defs>
    <g id="Desktop-HD" stroke="none" stroke-width="1" fill="none" fill-rule="evenodd">
        <rect fill="#094074" x="0" y="0" width="1440" height="1024"></rect>
        <g id="BG">
            <polygon id="Fill-1" fill="#043863" points="1058.2998 206.7689 1045.6648 202.0169 1017.9638 176.8559 1018.0138 176.7209 1001.2208 170.6089 994.5848 188.8429 947.9308 146.5099 952.4648 134.0529 958.1498 118.4369 942.5298 112.7519 916.5288 103.2889 916.4958 103.3789 916.4848 103.2719 872.3398 104.8899 856.3608 99.0739 848.5608 88.0569 740.2768 164.7729 740.3048 164.8339 740.2598 164.8179 717.2288 228.0949 757.2918 298.0819 798.6868 313.1499 816.8078 306.2009 840.4168 314.7919 843.9568 320.9379 841.1638 328.6099 861.7488 336.1019 849.3628 370.1329 863.0098 414.0989 848.7768 452.3639 825.1428 478.1099 831.9958 601.2809 827.3858 602.5679 832.1638 619.6409 837.2788 618.2309 883.6068 628.4479 883.6548 628.3129 883.7128 628.4359 933.7108 601.0409 940.1838 583.2589 959.8388 579.6789 965.5398 564.0179 966.2938 549.7259 1013.9878 532.7369 1026.3738 498.7059 1028.3638 465.8499 1140.8848 400.9499 1143.7748 384.7249 1097.0308 376.3499 1095.6968 359.5089 1078.5938 329.1069 1081.7648 320.3969 1081.7198 320.3799 1081.7808 320.3519 1073.7078 306.0149 1078.4218 293.0619 1069.9318 222.7069 1074.9908 208.8059 1059.5078 203.1699 1058.2098 206.7359"></polygon>
            <g id="Group-4" transform="translate(956.000000, 0.348000)">
                <mask id="mask-2" fill="white">
                    <use xlink:href="#path-1"></use>
                </mask>
                <g id="Clip-3"></g>
                <path d="M194.1689,-59.8877 L194.3529,-60.3937 L194.7279,-59.6847 L194.1689,-59.8877 Z M796.5779,136.8303 L789.3999,134.2183 L763.0589,92.3983 L702.4559,70.3413 L704.8279,63.8323 L701.5609,55.2703 L678.0919,46.7283 L673.0519,28.1613 L645.1489,10.8743 L634.7289,25.2883 L612.3489,17.1423 L610.3119,8.5163 L600.6319,22.9593 L594.4739,4.7373 L600.4429,3.2103 L604.3999,-7.6587 L600.5909,-15.4567 L593.6259,-17.9917 L586.7259,-25.4087 L582.1389,-23.6477 L579.5239,-16.4727 L565.6289,-21.5317 L567.9199,-27.8287 L554.1479,-35.3097 L548.4369,-35.1617 L550.3919,-56.0867 L555.9319,-58.4937 L560.9889,-72.3927 L556.0499,-83.7897 L543.4559,-88.3757 L539.6169,-103.5547 L533.8619,-110.0737 L516.6809,-102.0627 L513.5179,-93.3727 L494.6199,-100.2507 L465.7269,-94.5467 L448.2049,-84.9447 L450.2999,-75.8157 L425.0909,-79.5747 L419.6359,-64.5867 L390.9579,-75.0247 L393.4039,-81.7467 L380.3819,-86.4877 L362.2799,-65.7807 L357.8089,-51.4277 L363.4039,-39.4307 L358.2779,-36.5107 L346.4579,-56.7937 L336.8809,-62.2357 L333.0869,-70.7487 L329.0309,-69.0337 L333.8689,-52.5577 L306.0689,-62.6757 L244.7779,-48.8407 L243.8869,-38.4517 L222.0929,-46.3847 L227.0349,-59.9637 L221.2459,-72.4227 L236.5989,-56.9637 L244.8369,-53.9657 L253.9219,-58.0017 L256.6199,-65.4157 L242.5579,-89.1327 L233.5739,-92.4027 L231.6859,-94.9867 L234.5879,-97.0887 L230.4739,-102.7397 L227.5709,-100.6367 L224.6989,-104.5707 L229.9029,-108.3647 L219.7629,-122.3477 L182.8059,-119.8787 L111.3619,-65.8317 L106.0209,-67.7767 L96.6479,-42.0257 L100.1679,-34.9077 L100.1189,-34.7747 L105.6479,-32.7617 L118.1639,-38.9507 L118.1009,-16.2827 L115.4699,-9.0537 L121.8489,-6.7327 L123.4729,-11.1967 L125.0919,-11.1797 L125.1019,-11.2057 L130.7359,-8.4927 L139.1659,-25.9497 L144.3199,-25.6387 L151.2319,-31.3977 L146.8469,-41.5107 L146.6649,-41.4267 L152.2989,-53.0987 L174.0849,-63.5867 L174.1209,-63.6037 L180.8989,-74.2877 L188.6069,-71.4827 L190.3079,-68.2147 L188.0929,-62.1297 L186.2049,-62.8167 L166.4149,-51.0307 L160.5639,-34.9537 L166.0779,-26.2047 L186.7619,-24.1547 L187.0089,-26.6527 L188.3649,-20.6207 L187.1759,-17.3527 L173.8429,-20.9107 L166.1939,-20.3247 L163.9019,-14.0277 L165.7099,-13.3687 L162.4499,-4.4127 L156.5979,-12.5627 L150.9029,-8.4957 L150.4459,-8.1507 L150.4199,-8.1597 L146.6869,2.0973 L138.2669,5.7143 L136.3799,5.0263 L137.3279,2.4223 L132.1179,0.5263 L117.5639,2.3913 L117.2459,-2.6897 L116.9049,-2.6627 L106.9499,-2.1037 L103.6419,-10.0487 L109.0669,-24.9567 L106.1439,-26.0207 L98.3479,-4.6027 L89.3979,-4.1587 L86.9789,-5.0387 L54.9239,10.2583 L51.1769,8.8943 L49.8899,12.4283 L38.5949,8.3173 L35.5649,12.4213 L45.2219,19.5473 L43.8979,23.1883 L45.7309,23.8553 L39.6379,40.5963 L14.7899,30.4693 L14.2149,31.8843 L11.9019,31.0443 L11.7179,31.5483 L10.4699,31.0933 L9.6469,33.3523 L10.8969,33.8073 L5.9249,47.4663 L1.7629,52.4513 L3.5649,53.9503 L0.9819,61.0453 L8.9289,63.9373 L11.6409,70.4623 L16.2469,68.5573 L26.8529,72.4173 L27.0649,71.8323 L38.0919,66.4263 L36.5489,63.3063 L37.4389,60.8623 L46.1169,56.6183 L53.3619,55.0713 L56.0409,47.7113 L68.7989,52.3533 L76.1449,50.0323 L78.6479,49.4383 L82.0229,50.6683 L83.1439,58.8393 L89.7979,71.7333 L91.7899,72.4593 L97.1329,83.9133 L95.8269,87.5013 L90.0979,88.2743 L81.3269,85.0823 L80.6689,86.8893 L87.0779,94.3373 L88.9919,95.0343 L90.9749,89.5873 L94.5889,90.9023 L100.9259,86.2263 L99.2699,82.0123 L101.0199,79.8503 L106.1629,85.4843 C106.1629,85.4843 107.0189,84.2913 106.8589,83.5713 C106.7099,82.8243 101.8989,75.1153 101.8989,75.1153 L99.9959,73.7303 L101.0889,70.7273 L96.9209,69.3603 L92.1359,52.2413 L93.8229,48.7623 L98.2069,48.4623 L102.1179,53.6773 L102.6429,62.6553 L113.0879,75.6363 L110.8069,85.1283 L114.2119,95.4563 L112.5869,99.9213 L114.7849,104.6333 L119.5419,106.3643 L121.5729,100.7843 L127.4179,105.3183 L122.1639,93.2043 L122.6539,87.7253 L124.2729,87.7423 L124.1779,90.5663 L127.4209,91.7473 L128.5519,88.6373 L136.1269,91.3953 L134.1639,96.7903 L137.1129,97.8633 L132.4369,103.3533 L140.8839,116.7803 L145.2159,118.3573 L146.3959,115.1153 L149.0269,116.0723 L152.0459,120.8423 L156.9629,122.6333 L161.6399,120.4533 L165.5169,124.9333 L162.7219,132.6133 L150.9899,143.5103 L143.7329,140.8703 L142.0069,148.7583 L143.9209,160.2883 L147.5249,159.3133 L149.4399,160.0093 L151.3749,178.2583 L153.5279,179.0433 L155.0849,186.2593 L151.9809,194.7903 L155.6429,198.2903 L159.5359,215.6273 L157.3359,231.0163 L177.5629,233.7443 L198.2769,228.7643 L205.4809,231.3863 L232.6879,216.0093 L222.2739,203.5223 L224.5859,197.1713 L221.3429,195.9913 L212.8409,200.6613 L203.5919,197.2943 L206.6959,188.7633 L204.0649,187.8063 L201.6179,191.8823 L200.5339,189.6513 L202.1979,185.0813 L197.7689,175.5843 L200.2259,168.8343 L206.9489,171.2813 L208.5369,182.6333 L217.5809,192.1843 L225.8939,192.5013 L227.8499,199.8633 L241.8439,207.3943 L260.5809,214.2153 L265.1179,225.6463 L270.7529,227.6973 L269.6659,229.1983 L263.7219,227.9973 L267.5229,236.5733 L272.0949,238.2373 L277.6499,232.6453 L273.8599,248.2693 L273.4939,276.1533 L276.0179,293.5333 L288.1319,288.2823 L296.7919,268.9553 L300.1049,269.5283 L328.5739,260.0283 L330.0159,256.0683 L333.8219,255.2873 L341.7419,258.1703 L347.9059,256.2003 L349.5779,260.2103 L348.0449,265.9113 L352.6669,277.5243 L349.1269,287.2503 L354.6549,289.2623 L360.2369,286.6603 L362.9979,291.0653 L360.7649,297.2043 L360.8219,305.8923 L355.6869,320.0033 L358.7449,331.1953 L356.3759,337.7073 L361.4009,350.9423 L368.5649,357.6433 L369.4669,340.2743 L364.0229,330.9243 L359.4339,316.4913 L368.0409,304.3363 L370.4329,305.2073 L370.1009,309.5093 L380.0389,322.7273 L377.5919,329.4523 L397.8589,323.7973 L403.3919,308.5953 L396.3329,291.5213 L406.1339,283.5333 L413.5229,286.2213 L411.7809,291.0053 L406.5589,293.1973 L405.2819,296.7053 L411.3679,298.9203 L418.2999,294.1003 L414.3929,292.6773 L416.4529,287.0173 L446.9909,288.2923 L471.9429,267.7013 L474.8149,259.8083 L471.3569,242.2683 L486.6639,237.4273 L481.0909,231.8183 L474.2779,232.9203 L470.1269,223.4033 L488.2729,217.4593 L490.4399,221.6783 L485.3999,224.0273 L483.7369,228.5973 L496.5039,227.3463 L500.4169,231.4783 L494.4309,236.4323 L497.4089,239.7433 L502.6669,240.1823 L497.7409,244.2883 L495.4369,255.9993 L508.7049,254.6883 L511.6259,246.6633 L508.3769,231.9383 L519.1759,229.9703 L526.9329,221.4783 L531.1009,221.5203 L536.5079,226.9213 L572.9829,203.7823 L578.0409,189.8833 L583.2629,186.3683 L584.8529,182.0093 L586.6719,177.0133 L583.1159,169.9123 L578.9939,168.4123 L574.7079,171.4253 L571.1399,168.4123 L572.9889,163.3373 L567.7779,161.4403 L568.6959,158.9163 L606.9319,140.3613 L626.4909,147.4813 L631.5019,145.8743 L638.4199,149.8653 L636.7539,154.4353 L651.7089,157.9233 L652.5799,155.5313 L649.3129,154.3413 L650.6959,150.5413 L666.1809,141.0703 L676.3849,144.7853 L673.0689,153.9003 L687.4719,148.8193 L689.3669,143.6113 L693.6419,142.6993 L696.9089,143.8883 L696.1139,146.0683 L693.5119,145.1203 L685.4449,156.4493 L653.8629,169.5403 L645.3609,178.0043 L636.9369,213.3063 L646.3509,208.3673 L648.2469,203.1583 L654.7589,205.5283 L657.4489,198.1403 L661.1829,195.3173 L666.3929,197.2143 L670.2609,186.5843 L673.7469,187.8513 L677.5379,177.4343 L672.9639,175.7703 L673.9879,172.9543 L683.6679,162.5733 L689.3029,164.6233 L707.4779,166.6963 L707.9789,172.7753 L748.9219,165.0483 L752.1249,149.4793 L764.3359,140.8943 L775.4169,144.9283 L773.4439,150.3493 L782.7179,161.3393 L801.4879,148.9693 L796.5779,136.8303 Z" id="Fill-2" fill="#043863" mask="url(#mask-2)"></path>
            </g>
            <path d="M0,1023 L765.225,1023 C819.329,882.224 849,729.329 849,569.5 C849,364.633 800.261,171.155 713.775,0 L0,0 L0,1023 Z" id="Fill-1" fill="#011134"></path>
        </g>
    </g>
</svg>