<?xml version="1.0" encoding="UTF-8"?>
<svg width="387px" height="81px" viewBox="0 0 387 81" version="1.1" xmlns="http://www.w3.org/2000/svg" xmlns:xlink="http://www.w3.org/1999/xlink">
    <!-- Generator: Sketch 64 (93537) - https://sketch.com -->
    <title>BizDayGlobal_Logo_White</title>
    <desc>Created with Sketch.</desc>
    <g id="Page-2" stroke="none" stroke-width="1" fill="none" fill-rule="evenodd">
        <g id="BizDay_Logo_Final" transform="translate(-116.000000, -564.000000)" fill-rule="nonzero">
            <g id="BizDayGlobal_Logo_White" transform="translate(116.000000, 564.820000)">
                <path d="M18.0387097,69.9096774 C23.5612903,69.9096774 27.3806452,68.0903226 29.4967742,64.4516129 C31.6129032,60.8129032 32.6709677,55.4580645 32.6709677,48.3870968 C32.6709677,44.0516129 32.1032258,40.5677419 30.9677419,37.9354839 C29.8322581,35.3032258 27.8709677,33.6258065 25.083871,32.9032258 C29.6258065,31.6645161 31.8967742,27.8709677 31.8967742,21.5225806 L31.8967742,21.5225806 L31.8967742,18.5806452 C31.8967742,13.2129032 30.8,9.34193548 28.6064516,6.96774194 C26.4129032,4.59354839 22.8903226,3.40645161 18.0387097,3.40645161 L18.0387097,3.40645161 L0,3.40645161 L0,69.9096774 L18.0387097,69.9096774 Z M15.716129,28.4129032 L13.0064516,28.4129032 L13.0064516,13.6258065 L15.7935484,13.6258065 C17.7032258,13.6258065 18.6580645,14.7096774 18.6580645,16.8774194 L18.6580645,16.8774194 L18.6580645,23.5354839 C18.6580645,25.083871 18.4516129,26.283871 18.0387097,27.1354839 C17.6258065,27.9870968 16.8516129,28.4129032 15.716129,28.4129032 L15.716129,28.4129032 Z M14.3225806,58.2193548 L13.0064516,58.1419355 L13.0064516,38.8645161 L15.483871,38.8645161 C16.9806452,38.8645161 18.0258065,39.3806452 18.6193548,40.4129032 C19.2129032,41.4451613 19.5096774,42.9677419 19.5096774,44.9806452 L19.5096774,44.9806452 L19.5096774,53.2645161 C19.5096774,56.5677419 17.7806452,58.2193548 14.3225806,58.2193548 L14.3225806,58.2193548 Z M50.7526882,9.44516129 L50.7526882,0 L37.2043011,0 L37.2043011,9.44516129 L50.7526882,9.44516129 Z M50.7526882,69.9096774 L50.7526882,13.2387097 L37.2043011,13.2387097 L37.2043011,69.9096774 L50.7526882,69.9096774 Z M83.1569893,69.9096774 L83.1569893,59.7677419 L69.6860215,59.7677419 L83.0021506,22.4516129 L83.0021506,13.2387097 L55.5182796,13.2387097 L55.5182796,23.9225806 L68.9892473,23.9225806 L54.8989247,61.6258065 L54.8989247,69.9096774 L83.1569893,69.9096774 Z M104.954839,69.9096774 C110.322581,69.9096774 114.167742,68.2580645 116.490323,64.9548387 C118.812903,61.6516129 119.948387,56.7225806 119.896774,50.1677419 L119.896774,50.1677419 L119.741936,19.0451613 C119.690323,13.883871 118.477419,9.98709677 116.103226,7.35483871 C113.729032,4.72258065 110.167742,3.40645161 105.419355,3.40645161 L105.419355,3.40645161 L87.0709678,3.40645161 L87.0709678,69.9096774 L104.954839,69.9096774 Z M102.787097,58.1419355 L100.464516,58.1419355 L100.464516,15.0193548 L101.935484,15.0193548 C103.225806,15.0193548 104.180645,15.1483871 104.8,15.4064516 C105.419355,15.6645161 105.845161,16.1677419 106.077419,16.916129 C106.309677,17.6645161 106.425806,18.7870968 106.425806,20.283871 L106.425806,20.283871 L106.425806,54.5806452 C106.425806,56.9548387 105.212903,58.1419355 102.787097,58.1419355 L102.787097,58.1419355 Z M135.733333,70.5290323 C137.746237,70.5290323 139.488172,69.883871 140.95914,68.5935484 C142.430108,67.3032258 143.501075,65.4967742 144.172043,63.1741935 L144.172043,63.1741935 L144.172043,69.9096774 L157.643011,69.9096774 L157.643011,26.7096774 C157.643011,22.2193548 156.172043,18.7483871 153.230108,16.2967742 C150.288172,13.8451613 146.468817,12.6193548 141.772043,12.6193548 C135.888172,12.6193548 131.643011,13.8064516 129.036559,16.1806452 C126.430108,18.5548387 125.126882,22.5290323 125.126882,28.1032258 L125.126882,28.1032258 L125.126882,29.9612903 L138.288172,29.9612903 L138.288172,26.5548387 C138.288172,25.4193548 138.55914,24.516129 139.101075,23.8451613 C139.643011,23.1741935 140.275269,22.8387097 140.997849,22.8387097 C141.823656,22.8387097 142.533333,23.2387097 143.126882,24.0387097 C143.72043,24.8387097 144.017204,25.9870968 144.017204,27.483871 L144.017204,27.483871 L144.017204,33.2903226 L140.301075,34.5290323 C136.068817,35.8709677 132.92043,37.0967742 130.855914,38.2064516 C128.791398,39.316129 127.178495,41.0580645 126.017204,43.4322581 C124.855914,45.8064516 124.275269,49.2129032 124.275269,53.6516129 C124.275269,59.0709677 125.088172,63.2387097 126.713979,66.1548387 C128.339785,69.0709677 131.346237,70.5290323 135.733333,70.5290323 Z M141.075269,60 C139.062366,60 138.055914,58.3225806 138.055914,54.9677419 L138.055914,54.9677419 L138.055914,47.6903226 C138.055914,45.5741935 138.533333,43.9225806 139.488172,42.7354839 C140.443011,41.5483871 141.926882,40.5677419 143.939785,39.7935484 L143.939785,39.7935484 L143.939785,55.5870968 C143.939785,56.8258065 143.72043,57.8709677 143.28172,58.7225806 C142.843011,59.5741935 142.107527,60 141.075269,60 Z M177.427957,79.3548387 C179.802151,79.3548387 181.544086,78.8258065 182.653763,77.7677419 C183.763441,76.7096774 184.498925,75.0709677 184.860215,72.8516129 L184.860215,72.8516129 L195.389247,13.2387097 L182.382796,13.2387097 L179.363441,40.8774194 L177.892473,54.9677419 L176.653763,40.8774194 L174.098925,13.2387097 L161.169893,13.2387097 L169.995699,68.7483871 C170.047312,68.9548387 170.073118,69.2387097 170.073118,69.6 C170.073118,70.3741935 169.608602,70.7612903 168.67957,70.7612903 L168.67957,70.7612903 L162.176344,70.7612903 L162.176344,79.3548387 L177.427957,79.3548387 Z" id="BizDay" fill="#FFFFFF"></path>
                <path d="M213.316129,70.5290323 C218.270968,70.5290323 221.935484,68.4645161 224.309677,64.3354839 L224.309677,64.3354839 L226.554839,69.9096774 L231.896774,69.9096774 L231.896774,31.2 L215.63871,31.2 L215.63871,42.6580645 L219.2,42.6580645 L219.2,52.1806452 C219.2,54.1935484 218.941936,55.716129 218.425806,56.7483871 C217.909677,57.7806452 217.006452,58.2967742 215.716129,58.2967742 C214.425806,58.2967742 213.522581,57.7806452 213.006452,56.7483871 C212.490323,55.716129 212.232258,54.1935484 212.232258,52.1806452 L212.232258,52.1806452 L212.232258,19.9741935 C212.232258,16.6709677 213.496774,15.0193548 216.025806,15.0193548 C217.16129,15.0193548 217.948387,15.4580645 218.387097,16.3354839 C218.825806,17.2129032 219.045161,18.4516129 219.045161,20.0516129 L219.045161,20.0516129 L219.045161,26.0129032 L232.051613,26.0129032 C232.051613,20.7483871 231.587097,16.4387097 230.658065,13.083871 C229.729032,9.72903226 228.051613,7.17419355 225.625806,5.41935484 C223.2,3.66451613 219.793548,2.78709677 215.406452,2.78709677 C209.987097,2.78709677 205.909677,4.36129032 203.174194,7.50967742 C200.43871,10.6580645 199.070968,15.3032258 199.070968,21.4451613 L199.070968,21.4451613 L199.070968,50.0903226 C199.070968,56.9548387 200.245161,62.0774194 202.593548,65.4580645 C204.941936,68.8387097 208.516129,70.5290323 213.316129,70.5290323 Z M251.139785,69.9096774 L251.139785,3.01935484 L237.35914,3.01935484 L237.35914,69.9096774 L251.139785,69.9096774 Z M273.47957,70.5290323 C284.782796,70.5290323 290.434409,64.6709677 290.434409,52.9548387 L290.434409,52.9548387 L290.434409,30.1935484 C290.434409,24.8258065 288.924731,20.5548387 285.905376,17.3806452 C282.886022,14.2064516 278.744086,12.6193548 273.47957,12.6193548 C268.215054,12.6193548 264.073118,14.2064516 261.053763,17.3806452 C258.034409,20.5548387 256.524731,24.8258065 256.524731,30.1935484 L256.524731,30.1935484 L256.524731,52.9548387 C256.524731,64.6709677 262.176344,70.5290323 273.47957,70.5290323 Z M273.47957,60.0774194 C272.395699,60.0774194 271.595699,59.6903226 271.07957,58.916129 C270.563441,58.1419355 270.305376,57.083871 270.305376,55.7419355 L270.305376,55.7419355 L270.305376,28.0258065 C270.305376,24.7225806 271.363441,23.0709677 273.47957,23.0709677 C275.595699,23.0709677 276.653763,24.7225806 276.653763,28.0258065 L276.653763,28.0258065 L276.653763,55.7419355 C276.653763,57.083871 276.395699,58.1419355 275.87957,58.916129 C275.363441,59.6903226 274.563441,60.0774194 273.47957,60.0774194 Z M317.806452,70.5290323 C321.832258,70.5290323 324.825807,69.1225806 326.787097,66.3096774 C328.748387,63.4967742 329.729032,59.7677419 329.729032,55.1225806 L329.729032,55.1225806 L329.729032,27.7935484 C329.729032,22.8903226 328.774194,19.1354839 326.864516,16.5290323 C324.954839,13.9225806 321.806452,12.6193548 317.419355,12.6193548 C314.529032,12.6193548 312,13.7290323 309.832258,15.9483871 L309.832258,15.9483871 L309.832258,3.01935484 L295.896774,3.01935484 L295.896774,69.9096774 L309.832258,69.9096774 L309.832258,63.8709677 C311.432258,68.3096774 314.090323,70.5290323 317.806452,70.5290323 Z M313.23871,60 C311.793548,60 310.864516,59.3935484 310.451613,58.1806452 C310.03871,56.9677419 309.832258,55.1225806 309.832258,52.6451613 L309.832258,52.6451613 L309.832258,28.8774194 C309.832258,26.9677419 310.064516,25.5225806 310.529032,24.5419355 C310.993548,23.5612903 311.870968,23.0709677 313.16129,23.0709677 C314.348387,23.0709677 315.122581,23.5612903 315.483871,24.5419355 C315.845161,25.5225806 316.025807,27.0193548 316.025807,29.0322581 L316.025807,29.0322581 L316.025807,52.6451613 C316.025807,54.5548387 315.987097,55.9612903 315.909677,56.8645161 C315.832258,57.7677419 315.6,58.516129 315.212903,59.1096774 C314.825807,59.7032258 314.167742,60 313.23871,60 Z M345.410753,70.5290323 C347.423656,70.5290323 349.165591,69.883871 350.636559,68.5935484 C352.107527,67.3032258 353.178495,65.4967742 353.849462,63.1741935 L353.849462,63.1741935 L353.849462,69.9096774 L367.32043,69.9096774 L367.32043,26.7096774 C367.32043,22.2193548 365.849462,18.7483871 362.907527,16.2967742 C359.965591,13.8451613 356.146237,12.6193548 351.449462,12.6193548 C345.565591,12.6193548 341.32043,13.8064516 338.713979,16.1806452 C336.107527,18.5548387 334.804301,22.5290323 334.804301,28.1032258 L334.804301,28.1032258 L334.804301,29.9612903 L347.965591,29.9612903 L347.965591,26.5548387 C347.965591,25.4193548 348.236559,24.516129 348.778495,23.8451613 C349.32043,23.1741935 349.952688,22.8387097 350.675269,22.8387097 C351.501075,22.8387097 352.210753,23.2387097 352.804301,24.0387097 C353.39785,24.8387097 353.694624,25.9870968 353.694624,27.483871 L353.694624,27.483871 L353.694624,33.2903226 L349.978495,34.5290323 C345.746237,35.8709677 342.59785,37.0967742 340.533333,38.2064516 C338.468817,39.316129 336.855914,41.0580645 335.694624,43.4322581 C334.533333,45.8064516 333.952688,49.2129032 333.952688,53.6516129 C333.952688,59.0709677 334.765591,63.2387097 336.391398,66.1548387 C338.017204,69.0709677 341.023656,70.5290323 345.410753,70.5290323 Z M350.752688,60 C348.739785,60 347.733333,58.3225806 347.733333,54.9677419 L347.733333,54.9677419 L347.733333,47.6903226 C347.733333,45.5741935 348.210753,43.9225806 349.165591,42.7354839 C350.12043,41.5483871 351.604301,40.5677419 353.617204,39.7935484 L353.617204,39.7935484 L353.617204,55.5870968 C353.617204,56.8258065 353.39785,57.8709677 352.95914,58.7225806 C352.52043,59.5741935 351.784946,60 350.752688,60 Z M386.71828,69.9096774 L386.71828,3.01935484 L372.937634,3.01935484 L372.937634,69.9096774 L386.71828,69.9096774 Z" id="Global" fill="#F5442E"></path>
            </g>
        </g>
    </g>
</svg>