<?xml version="1.0" encoding="UTF-8"?>
<svg width="169px" height="37px" viewBox="0 0 169 37" version="1.1" xmlns="http://www.w3.org/2000/svg" xmlns:xlink="http://www.w3.org/1999/xlink">
    <title>bridgetown_partners_logo</title>
    <g id="Page-1" stroke="none" stroke-width="1" fill="none" fill-rule="evenodd">
        <g id="Desktop-HD-BizDay" transform="translate(-636.000000, -3528.000000)">
            <g id="Group-11" transform="translate(312.000000, 3321.000000)">
                <g id="bridgetown_partners_logo" transform="translate(324.000000, 207.000000)">
                    <path d="M7.82490216,13.5087973 C8.8354834,13.5087973 9.62487317,13.3256206 10.2032179,12.9592673 C10.7754747,12.5948421 11.0656617,12.0472403 11.0656617,11.3145336 L11.0656617,11.2682574 C11.0656617,10.5837551 10.7795333,10.0535069 10.2153935,9.681369 C9.64516597,9.30730296 8.77866357,9.12026994 7.61385708,9.12026994 L2.93433831,9.12026994 L2.93433831,13.5087973 L7.82490216,13.5087973 Z M6.96448761,6.7428296 C7.92230758,6.7428296 8.68734599,6.56543745 9.2636614,6.20679682 C9.83794753,5.84815618 10.1261052,5.30248253 10.1261052,4.57170403 L10.1261052,4.52735599 C10.1261052,3.88527356 9.87447456,3.38780429 9.3732425,3.02916365 C8.86795188,2.67245119 8.13741122,2.49313087 7.17553269,2.49313087 L2.93433831,2.49313087 L2.93433831,6.7428296 L6.96448761,6.7428296 Z M0,0 L7.54080301,0 C9.47673576,0 10.9398464,0.472402989 11.9341934,1.41720897 C12.6850268,2.13449024 13.0624728,3.0175946 13.0624728,4.06845023 L13.0624728,4.11472644 C13.0624728,4.60255483 12.9934773,5.03253796 12.8575156,5.406604 C12.7235831,5.77874187 12.5490651,6.10653169 12.3359907,6.38997349 C12.1188578,6.67148711 11.8631686,6.91829356 11.5709523,7.13232104 C11.2767068,7.34442034 10.9763734,7.52759701 10.67604,7.67992287 C11.1691549,7.84960231 11.6176257,8.04241986 12.0275402,8.26416004 C12.4313669,8.48397204 12.7844615,8.74813208 13.0766778,9.05085563 C13.3729526,9.35743553 13.6022612,9.71607616 13.7585157,10.1267775 C13.9188288,10.5374789 14,11.0175946 14,11.5671246 L14,11.6114726 C14,12.3287539 13.8498333,12.9592673 13.5535585,13.5087973 C13.2572837,14.0583273 12.8412813,14.5153049 12.2954051,14.8797301 C11.7495289,15.2460834 11.0940716,15.5237407 10.3270039,15.71463 C9.55790694,15.9055194 8.70763879,16 7.78025801,16 L0,16 L0,0 Z" id="Shape" fill="#2A2A2A"></path>
                    <rect id="Rectangle" fill="#2A2A2A" x="34" y="0" width="3" height="16"></rect>
                    <path d="M48.1607143,13.4644493 C49.0302505,13.4644493 49.8198294,13.329477 50.529451,13.0633888 C51.2410714,12.791516 51.8447495,12.4193782 52.342484,11.9354061 C52.8402186,11.4552904 53.2280117,10.8806941 53.5038646,10.2135454 C53.7817164,9.55025307 53.9176439,8.82718727 53.9176439,8.04627621 L53.9176439,8 C53.9176439,7.21908894 53.7817164,6.49216679 53.5038646,5.82116173 C53.2280117,5.14822849 52.8402186,4.56784767 52.342484,4.08773198 C51.8447495,3.60375994 51.2410714,3.22776573 50.529451,2.95010846 C49.8198294,2.67630754 49.0302505,2.53747891 48.1607143,2.53747891 L44.8904584,2.53747891 L44.8904584,13.4644493 L48.1607143,13.4644493 Z M42,0 L48.1847015,0 C49.4800107,0 50.6673774,0.202458424 51.7507996,0.605447096 C52.8322228,1.01036394 53.7657249,1.56953483 54.5453092,2.2868161 C55.3288913,3.0021692 55.9325693,3.84478188 56.3583422,4.81272596 C56.7861141,5.77874187 57,6.82766932 57,7.95565196 L57,8 C57,9.12798265 56.7861141,10.1788383 56.3583422,11.1544951 C55.9325693,12.1301518 55.3288913,12.9746927 54.5453092,13.691974 C53.7657249,14.4073271 52.8322228,14.9722825 51.7507996,15.3829839 C50.6673774,15.7956134 49.4800107,16 48.1847015,16 L42,16 L42,0 Z" id="Shape" fill="#2A2A2A"></path>
                    <path d="M67.3122988,17 C66.060528,17 64.9246619,16.7860639 63.9008371,16.3542298 C62.8770122,15.9243766 62.0038635,15.3301095 61.2794591,14.5714286 C60.553123,13.8107667 59.9929169,12.9193661 59.5969092,11.893265 C59.1989697,10.8691447 59,9.75192263 59,8.54754137 L59,8.5 C59,7.35702633 59.2028332,6.26951759 59.6123632,5.23747378 C60.0199614,4.20344908 60.5917579,3.30016313 61.3296845,2.52365416 C62.0656793,1.74912608 62.9426916,1.1350501 63.9587894,0.681426241 C64.9748873,0.227802377 66.083709,0 67.2910496,0 C67.992273,0 68.6297489,0.0515031461 69.2015454,0.152528548 C69.7752737,0.25553484 70.3045718,0.400139828 70.7933033,0.58634351 C71.2820348,0.774528082 71.7437218,1.00629224 72.1783645,1.27965509 C72.6149388,1.55499883 73.037991,1.86996038 73.4494527,2.23048241 L71.6645203,4.41540433 C71.3573728,4.14798415 71.0463619,3.90631554 70.7256922,3.68643673 C70.4050225,3.4685388 70.0688989,3.28431601 69.7173213,3.13574924 C69.3657437,2.98718247 68.9813265,2.86832906 68.5602061,2.78315078 C68.1410174,2.69599161 67.6793303,2.65439292 67.1751449,2.65439292 C66.4430135,2.65439292 65.7591758,2.81088324 65.1255634,3.1238639 C64.4919511,3.43684456 63.9433355,3.85877418 63.4777849,4.38371009 C63.0122344,4.908646 62.6452028,5.52272198 62.378622,6.22989979 C62.1120412,6.93509671 61.9768191,7.68189233 61.9768191,8.46632487 L61.9768191,8.51188534 C61.9768191,9.35772547 62.1081777,10.1441389 62.3670316,10.8651829 C62.6258854,11.5882079 62.9929169,12.2062456 63.4739214,12.723258 C63.9549259,13.2402703 64.522859,13.6503146 65.1873793,13.9474481 C65.8518995,14.2465626 66.5917579,14.3951293 67.416613,14.3951293 C68.1757888,14.3951293 68.8886027,14.2802377 69.5492595,14.0544162 C70.2137798,13.8226521 70.7855763,13.5215567 71.2743078,13.1412258 L71.2743078,10.0490562 L67.1751449,10.0490562 L67.1751449,7.53728735 L74,7.53728735 L74,14.4406898 C73.6020605,14.7853647 73.1635544,15.1141925 72.6825499,15.4271732 C72.2015454,15.7401538 71.681906,16.0154976 71.1255634,16.2492426 C70.5692209,16.4849685 69.9684482,16.6672104 69.3290406,16.7999301 C68.6877012,16.9346306 68.015454,17 67.3122988,17 Z" id="Path" fill="#2A2A2A"></path>
                    <polygon id="Path" fill="#2A2A2A" points="80.7991612 7 88.8540087 7 88.8540087 9.71452145 80.7991612 9.71452145 80.7991612 14.2875413 90 14.2875413 90 17 78 17 78 7"></polygon>
                    <polygon id="Path" fill="#FF5E14" points="78 0 90 0 90 3 80.8260586 3 78 3"></polygon>
                    <polygon id="Path" fill="#2A2A2A" points="98.0818357 2.60689323 93 2.60689323 93 0 106 0 106 2.60689323 100.920095 2.60689323 100.920095 16 98.0818357 16"></polygon>
                    <path d="M116.522531,14.347588 C117.325804,14.347588 118.060505,14.1950594 118.732511,13.8880214 C119.404518,13.5849452 119.976605,13.1689583 120.456609,12.6460033 C120.932696,12.1210674 121.308863,11.5050105 121.575314,10.8017945 C121.845684,10.0965975 121.980869,9.34584013 121.980869,8.54754137 L121.980869,8.5 C121.980869,7.70170124 121.845684,6.94698206 121.575314,6.23386157 C121.308863,5.52272198 120.928777,4.90468422 120.444854,4.37974831 C119.957013,3.8548124 119.377089,3.43684456 118.699205,3.1238639 C118.017402,2.81088324 117.278783,2.65439292 116.477469,2.65439292 C115.676155,2.65439292 114.939495,2.80692146 114.267489,3.11197856 C113.597442,3.41703566 113.023395,3.83104172 112.543391,4.35597763 C112.069264,4.88091354 111.693097,5.49498951 111.426645,6.19820555 C111.154316,6.90340247 111.019131,7.65415987 111.019131,8.45443952 L111.019131,8.5 C111.019131,9.29829876 111.154316,10.0530179 111.426645,10.7661384 C111.693097,11.4792589 112.073182,12.0972967 112.555146,12.6222326 C113.042987,13.1451876 113.62487,13.5651363 114.302754,13.878117 C114.982598,14.1910976 115.723176,14.347588 116.522531,14.347588 Z M116.477469,17 C115.22358,17 114.077446,16.7781403 113.039069,16.33244 C112.002651,15.8847588 111.111214,15.2786064 110.368676,14.5120019 C109.626138,13.7453973 109.046214,12.8480541 108.626945,11.8239338 C108.209635,10.7978327 108,9.70636215 108,8.54754137 L108,8.5 C108,7.3431601 108.209635,6.24970869 108.626945,5.22558844 C109.046214,4.1994873 109.633975,3.30016313 110.392186,2.52365416 C111.150398,1.74912608 112.049672,1.1350501 113.08609,0.681426241 C114.124467,0.227802377 115.268641,0 116.522531,0 C117.77838,0 118.924513,0.223840597 119.960931,0.6695409 C120.997349,1.1152412 121.888786,1.7233745 122.631324,2.48997903 C123.373862,3.25658355 123.955745,4.15194593 124.373055,5.17804708 C124.792325,6.20216733 125,7.29561874 125,8.45443952 L125,8.5 C125,9.65882079 124.792325,10.7502913 124.373055,11.7763924 C123.955745,12.8024936 123.366025,13.7018178 122.607814,14.4763458 C121.849602,15.2508739 120.952288,15.8669308 119.91391,16.3205546 C118.877492,16.7741785 117.731359,17 116.477469,17 Z" id="Shape" fill="#2A2A2A"></path>
                    <polygon id="Path" fill="#2A2A2A" points="128 0.0466587112 131.056485 0.0466587112 134.896485 12.5288783 138.850909 0 141.240242 0 145.194667 12.5288783 149.034667 0.0466587112 152 0.0466587112 146.391273 17 143.953455 17 139.99903 4.9052506 136.046545 17 133.608727 17"></polygon>
                    <polygon id="Path" fill="#2A2A2A" points="155 0 157.61181 0 166.200387 11.0638708 166.200387 0 169 0 169 16 166.639884 16 157.799613 4.61798024 157.799613 16 155 16"></polygon>
                    <path d="M4.02319909,29.7025509 C4.73317541,29.7025509 5.29523998,29.5268752 5.70347636,29.1696022 C6.11565705,28.816277 6.31878917,28.3583359 6.31878917,27.7997267 L6.31878917,27.7681445 C6.31878917,27.1404494 6.11171274,26.6647434 5.69558774,26.3449742 C5.28143489,26.025205 4.72331462,25.8653204 4.02319909,25.8653204 L1.84988272,25.8653204 L1.84988272,29.7025509 L4.02319909,29.7025509 Z M0,24.1815973 L4.18294376,24.1815973 C4.79825657,24.1815973 5.35834899,24.2645005 5.85730456,24.4322806 C6.35823229,24.5980869 6.78224592,24.8389007 7.13131761,25.1527483 C7.47841714,25.4665958 7.74663041,25.8396599 7.93398527,26.2758882 C8.12134013,26.7101427 8.21403148,27.1957182 8.21403148,27.7306408 L8.21403148,27.7622229 C8.21403148,28.3583359 8.10359073,28.8814151 7.88073705,29.3314607 C7.65591122,29.7815062 7.35219913,30.1585181 6.96960078,30.4605223 C6.58305813,30.7645005 6.13340646,30.9954449 5.61670148,31.1513817 C5.0999965,31.3073186 4.54976486,31.3862739 3.96009009,31.3862739 L1.84988272,31.3862739 L1.84988272,34.7991193 L0,34.7991193 L0,24.1815973 Z M20.7963894,30.5829031 L18.962284,26.3351048 L17.1439557,30.5829031 L20.7963894,30.5829031 Z M18.130034,24.1065897 L19.857643,24.1065897 L24.5257372,34.7991193 L22.555553,34.7991193 L21.4787556,32.2370179 L16.4615896,32.2370179 L15.3709871,34.7991193 L13.4599676,34.7991193 L18.130034,24.1065897 Z M35.1753819,29.4439721 C35.8439429,29.4439721 36.3764251,29.2860613 36.7708564,28.9643183 C37.1672599,28.6465229 37.3644755,28.2102946 37.3644755,27.6635287 L37.3644755,27.6319466 C37.3644755,27.0535985 37.1731763,26.6134224 36.7846615,26.3153659 C36.4020632,26.0133617 35.857748,25.8653204 35.1596046,25.8653204 L32.4380288,25.8653204 L32.4380288,29.4439721 L35.1753819,29.4439721 Z M30.5901182,24.1815973 L35.3173771,24.1815973 C35.9859382,24.1815973 36.5756129,24.2743699 37.0923179,24.4618889 C37.6070508,24.6494078 38.0369809,24.9099605 38.3801361,25.2435469 C38.6621544,25.5356817 38.8790916,25.8751898 39.0309477,26.2600972 C39.1828037,26.6450046 39.2577457,27.0693896 39.2577457,27.5332524 L39.2577457,27.5648345 C39.2577457,27.999089 39.1946367,28.3918919 39.0684187,28.7392955 C38.9422006,29.0886729 38.7686509,29.3965988 38.5457972,29.6650471 C38.3249157,29.9334953 38.0586746,30.160492 37.7510182,30.3480109 C37.4433618,30.5355299 37.1021787,30.6776496 36.727469,30.7802915 L39.5910401,34.7991193 L37.3940579,34.7991193 L34.7789784,31.0980869 L34.7493961,31.0980869 L32.4380288,31.0980869 L32.4380288,34.7991193 L30.5901182,34.7991193 L30.5901182,24.1815973 Z M48.4006628,25.9107197 L45.036164,25.9107197 L45.036164,24.1815973 L53.6446267,24.1815973 L53.6446267,25.9107197 L50.2801279,25.9107197 L50.2801279,34.7991193 L48.4006628,34.7991193 L48.4006628,25.9107197 Z M59.8608638,24.1815973 L61.5865006,24.1815973 L67.2564504,31.5224719 L67.2564504,24.1815973 L69.1043609,24.1815973 L69.1043609,34.7991193 L67.5463573,34.7991193 L61.7087743,27.2450653 L61.7087743,34.7991193 L59.8608638,34.7991193 L59.8608638,24.1815973 Z M76.0798782,24.1815973 L83.9310329,24.1815973 L83.9310329,25.8653204 L77.9277887,25.8653204 L77.9277887,28.5952019 L83.2466946,28.5952019 L83.2466946,30.278925 L77.9277887,30.278925 L77.9277887,33.1153963 L84.0059748,33.1153963 L84.0059748,34.7991193 L76.0798782,34.7991193 L76.0798782,24.1815973 Z M95.065828,29.4439721 C95.734389,29.4439721 96.2668713,29.2860613 96.6613026,28.9643183 C97.057706,28.6465229 97.2549216,28.2102946 97.2549216,27.6635287 L97.2549216,27.6319466 C97.2549216,27.0535985 97.0616503,26.6134224 96.6770798,26.3153659 C96.2925093,26.0133617 95.7501663,25.8653204 95.0500508,25.8653204 L92.3284749,25.8653204 L92.3284749,29.4439721 L95.065828,29.4439721 Z M90.4805643,24.1815973 L95.2078233,24.1815973 C95.8763843,24.1815973 96.4660591,24.2743699 96.9827641,24.4618889 C97.4974969,24.6494078 97.927427,24.9099605 98.2705822,25.2435469 C98.5526006,25.5356817 98.7695378,25.8751898 98.9213938,26.2600972 C99.0732499,26.6450046 99.1481918,27.0693896 99.1481918,27.5332524 L99.1481918,27.5648345 C99.1481918,27.999089 99.087055,28.3918919 98.9588648,28.7392955 C98.8326468,29.0886729 98.659097,29.3965988 98.4362433,29.6650471 C98.2153618,29.9334953 97.9491207,30.160492 97.6414643,30.3480109 C97.3338079,30.5355299 96.9926248,30.6776496 96.6179151,30.7802915 L99.4834584,34.7991193 L97.284504,34.7991193 L94.6713967,31.0980869 L94.6398422,31.0980869 L92.3284749,31.0980869 L92.3284749,34.7991193 L90.4805643,34.7991193 L90.4805643,24.1815973 Z M109.411294,34.9530823 C108.592849,34.9530823 107.809903,34.8129365 107.062456,34.5346189 C106.315008,34.2563012 105.622781,33.8279684 104.985775,33.2515943 L106.107932,31.9172487 C106.622665,32.3633465 107.143314,32.7048284 107.66988,32.9416945 C108.194473,33.1785606 108.792037,33.2989675 109.456653,33.2989675 C110.034495,33.2989675 110.490063,33.1765867 110.829274,32.933799 C111.168485,32.6910112 111.336118,32.3672943 111.336118,31.962648 L111.336118,31.9330398 C111.336118,31.7395991 111.304564,31.571819 111.237511,31.4237777 C111.172429,31.2777103 111.052128,31.1395384 110.874634,31.0072882 C110.695168,30.8770118 110.452592,30.754631 110.144936,30.6440935 C109.833335,30.5315821 109.432988,30.4210446 108.937976,30.3105071 C108.368023,30.1782569 107.867095,30.0302156 107.425332,29.8624355 C106.983569,29.6946553 106.612804,29.4933192 106.315008,29.2564531 C106.017213,29.0176131 105.788442,28.7274522 105.63067,28.3839964 C105.47487,28.0385667 105.395983,27.6260249 105.395983,27.1404494 L105.395983,27.1088673 C105.395983,26.6529001 105.486703,26.2364106 105.666169,25.8574248 C105.847607,25.4784391 106.096099,25.1547221 106.411644,24.8862739 C106.727189,24.6197996 107.105843,24.408594 107.55155,24.2566049 C107.993313,24.1065897 108.478464,24.0296083 109.003057,24.0296083 C109.782059,24.0296083 110.480203,24.1440935 111.101432,24.3710902 C111.722661,24.5980869 112.306419,24.9296994 112.852707,25.3639538 L111.850851,26.7752809 C111.367673,26.4219557 110.888439,26.1515336 110.413149,25.9640146 C109.93786,25.7764956 109.456653,25.683723 108.973475,25.683723 C108.427188,25.683723 108.003174,25.80413 107.699462,26.0469177 C107.39575,26.2897054 107.243894,26.5877619 107.243894,26.9410872 L107.243894,26.9726693 C107.243894,27.1740055 107.279393,27.3536289 107.35039,27.5115396 C107.421388,27.6674765 107.55155,27.8095961 107.736933,27.9359247 C107.92626,28.0622533 108.184613,28.1806863 108.51199,28.2912238 C108.843313,28.4037352 109.26141,28.5201944 109.768254,28.6406013 C110.324402,28.7827209 110.819413,28.9386578 111.249344,29.1103857 C111.677302,29.2840875 112.036234,29.4933192 112.318252,29.7400547 C112.602243,29.988764 112.81918,30.2769511 112.96512,30.6065897 C113.113031,30.9342545 113.186001,31.3152141 113.186001,31.7514425 L113.186001,31.7810507 C113.186001,32.2764956 113.09331,32.7206195 112.907927,33.1153963 C112.720572,33.5101731 112.464192,33.8437595 112.13287,34.1161555 C111.80352,34.3905254 111.405144,34.5977832 110.943659,34.7399028 C110.47823,34.8800486 109.967442,34.9511084 109.411294,34.9511084 L109.411294,34.9530823 Z M118.781009,36.2262375 C119.711867,36.0426663 120.139825,35.5689341 120.068827,34.7991193 L119.295742,34.7991193 L119.295742,32.7206195 L121.313258,32.7206195 L121.313258,34.481324 C121.313258,35.3300941 121.116042,35.9479198 120.721611,36.3308533 C120.32718,36.7157607 119.747366,36.9388096 118.978225,37 L118.781009,36.2262375 Z M132.501301,24.1815973 L134.349212,24.1815973 L134.349212,33.1153963 L139.92647,33.1153963 L139.92647,34.7991193 L132.501301,34.7991193 L132.501301,24.1815973 Z M146.128902,24.1815973 L147.976813,24.1815973 L147.976813,33.1153963 L153.554071,33.1153963 L153.554071,34.7991193 L146.128902,34.7991193 L146.128902,24.1815973 Z M164.696755,34.9846644 C163.919725,34.9826906 163.20186,34.8405709 162.545132,34.5563316 C161.886432,34.2740662 161.316479,33.8871849 160.8333,33.3976617 C160.352094,32.9061646 159.97344,32.3278166 159.697338,31.6606438 C159.421236,30.9914971 159.285157,30.278925 159.285157,29.5209535 L159.285157,29.4913453 C159.285157,28.7313999 159.421236,28.0227756 159.68945,27.3595506 C159.959635,26.6963255 160.340261,26.1160036 160.825412,25.6146371 C161.314506,25.1152445 161.892348,24.7204677 162.558937,24.4322806 C163.227498,24.1440935 163.963113,24 164.771697,24 C165.256847,24 165.69861,24.0394777 166.096986,24.1204069 C166.497334,24.2013362 166.864155,24.3158214 167.197449,24.4618889 C167.530743,24.6079563 167.8384,24.7836319 168.12239,24.9849681 C168.404409,25.1882782 168.672622,25.4113271 168.925058,25.6521409 L167.727959,27.0338597 C167.303945,26.6390829 166.854294,26.3193137 166.379004,26.0784998 C165.903714,25.8357121 165.363344,25.7133313 164.755919,25.7133313 C164.251047,25.7133313 163.785618,25.8120255 163.355688,26.0094139 C162.925758,26.2068023 162.554993,26.4752505 162.24142,26.8127847 C161.927847,27.1522927 161.685272,27.5490434 161.513694,28.0030367 C161.342117,28.4590039 161.255342,28.9445794 161.255342,29.4597631 L161.255342,29.4913453 C161.255342,30.006529 161.342117,30.4940783 161.513694,30.9539933 C161.685272,31.4139083 161.927847,31.8165806 162.24142,32.1600364 C162.554993,32.5034923 162.925758,32.7739144 163.355688,32.9713028 C163.785618,33.1686912 164.251047,33.2673854 164.755919,33.2673854 C165.402787,33.2673854 165.958935,33.1430307 166.424364,32.8962952 C166.889793,32.6495597 167.349305,32.3120255 167.802901,31.8876404 L169,33.1015791 C168.727842,33.3937139 168.44188,33.6542666 168.144084,33.8832372 C167.846288,34.1102338 167.524827,34.3076222 167.181672,34.4734285 C166.838517,34.6392347 166.461835,34.7675372 166.053598,34.8524142 C165.64339,34.9392651 165.191766,34.9826906 164.696755,34.9826906 L164.696755,34.9846644 Z" id="Shape" fill="#0C0D0E"></path>
                    <rect id="Rectangle" fill="#FF5E14" x="0" y="20" width="169" height="1"></rect>
                    <path d="M24.1282488,7.93251386 C25.1701463,7.93251386 25.9992899,7.69149193 26.6117029,7.20751988 C27.2280926,6.72740419 27.5342991,6.07375271 27.5342991,5.24656544 L27.5342991,5.20028923 C27.5342991,4.32875392 27.236046,3.66546156 26.6355631,3.21619667 C26.0370686,2.76307544 25.1940065,2.53747891 24.1043886,2.53747891 L19.8751598,2.53747891 L19.8751598,7.93251386 L24.1282488,7.93251386 Z M17,0 L24.3529328,0 C25.3888652,0 26.3094731,0.140756809 27.1107797,0.424198602 C27.9120864,0.70571222 28.5801733,1.09713184 29.1130521,1.60038564 C29.5524783,2.04193782 29.8924869,2.55290431 30.1271126,3.13135695 C30.3637267,3.71173777 30.4810396,4.35189202 30.4810396,5.05181972 L30.4810396,5.09809593 C30.4810396,5.75367558 30.3816219,6.34369728 30.1867632,6.87008918 C29.9899162,7.3945529 29.7195001,7.85924319 29.3735265,8.26416004 C29.0275529,8.66714871 28.6139753,9.01036394 28.1367703,9.29187756 C27.657577,9.57339118 27.1266866,9.79127501 26.5440988,9.94360087 L31,16 L27.5820196,16 L23.5158358,10.4237166 L23.4681153,10.4237166 L19.8751598,10.4237166 L19.8751598,16 L17,16 L17,0 Z" id="Shape" fill="#2A2A2A"></path>
                </g>
            </g>
        </g>
    </g>
</svg>