<?xml version="1.0" encoding="UTF-8"?>
<svg width="106px" height="95px" viewBox="0 0 106 95" version="1.1" xmlns="http://www.w3.org/2000/svg" xmlns:xlink="http://www.w3.org/1999/xlink">
    <title>Drone</title>
    <g id="Page-1" stroke="none" stroke-width="1" fill="none" fill-rule="evenodd">
        <g id="Desktop-HD" transform="translate(-1250.000000, -414.000000)">
            <g id="city-towers" transform="translate(179.000000, 315.065000)">
                <g id="City-towers" transform="translate(0.000000, 0.265000)">
                    <g id="Drone" transform="translate(1071.480000, 99.474000)">
                        <polyline id="Fill-1335" fill="#0C1316" points="75.89 91.934 50.53 86.72 28.17 91.934 28.17 46.601 75.89 46.601 75.89 91.934"></polyline>
                        <polygon id="Fill-1336" fill="#DB3A3A" points="57.07 76.546 61.36 76.546 61.36 72.969 57.07 72.969"></polygon>
                        <path d="M51.57,71.173 C51.57,72.219 51.03,72.741 49.93,72.741 L49.52,72.717 L49.52,66.616 L50.3,66.616 C50.77,66.616 51.1,66.779 51.29,67.106 C51.48,67.432 51.57,67.914 51.57,68.552 L51.57,71.173 Z M49.52,58.629 L50.4,58.629 C51,58.629 51.3,58.972 51.3,59.658 L51.3,61.765 C51.3,62.255 51.24,62.635 51.11,62.904 C50.98,63.174 50.73,63.308 50.37,63.308 L49.52,63.308 L49.52,58.629 Z M55.2,66.322 C54.84,65.489 54.22,64.958 53.34,64.729 C54.78,64.337 55.49,63.137 55.49,61.128 L55.49,60.197 C55.49,58.498 55.15,57.273 54.45,56.521 C53.76,55.77 52.64,55.394 51.11,55.394 L45.4,55.394 L45.4,76.441 L51.11,76.441 C52.86,76.441 54.07,75.865 54.74,74.714 C55.4,73.562 55.74,71.868 55.74,69.63 C55.74,68.258 55.56,67.155 55.2,66.322 L55.2,66.322 Z" id="Fill-1337" fill="#FFFFFE"></path>
                        <path d="M59.13,17.983 C59.13,15.711 60.98,13.863 63.25,13.863 L66.17,13.863 C65.46,12.962 64.35,12.383 63.12,12.383 L40.56,12.383 C39.32,12.383 38.22,12.962 37.51,13.863 L40.43,13.863 C42.7,13.863 44.54,15.711 44.54,17.983 C44.54,20.254 42.7,22.102 40.43,22.102 L37.51,22.102 C38.22,23.003 39.32,23.582 40.56,23.582 L63.12,23.582 C64.35,23.582 65.46,23.003 66.17,22.102 L63.25,22.102 C60.98,22.102 59.13,20.254 59.13,17.983" id="Fill-1338" fill="#7D8F8B"></path>
                        <path d="M34.14,43.841 L33.23,43.841 C33.23,37.602 34.77,31.731 37.58,27.308 C40.43,22.821 44.23,20.35 48.3,20.35 L48.3,21.261 C40.49,21.261 34.14,31.39 34.14,43.841" id="Fill-1339" fill="#7D8F8B"></path>
                        <path d="M35.5,45.298 C35.5,46.278 34.71,47.073 33.73,47.073 C32.75,47.073 31.95,46.278 31.95,45.298 C31.95,44.317 32.75,43.522 33.73,43.522 C34.71,43.522 35.5,44.317 35.5,45.298" id="Fill-1340" fill="#9DABAA"></path>
                        <path d="M71.11,43.841 L70.2,43.841 C70.2,31.39 63.84,21.261 56.04,21.261 L56.04,20.35 C60.1,20.35 63.91,22.821 66.75,27.308 C69.56,31.731 71.11,37.602 71.11,43.841" id="Fill-1341" fill="#7D8F8B"></path>
                        <path d="M68.83,45.298 C68.83,46.278 69.62,47.073 70.6,47.073 C71.58,47.073 72.38,46.278 72.38,45.298 C72.38,44.317 71.58,43.522 70.6,43.522 C69.62,43.522 68.83,44.317 68.83,45.298" id="Fill-1342" fill="#9DABAA"></path>
                        <path d="M51.55,7.446 C46.5,7.446 42.39,9.333 42.18,11.698 L60.91,11.698 C60.7,9.333 56.59,7.446 51.55,7.446" id="Fill-1343" fill="#9DABAA"></path>
                        <path d="M51.58,27.293 C53.6,27.293 55.34,26.064 56.09,24.311 L47.06,24.311 C47.81,26.064 49.55,27.293 51.58,27.293" id="Fill-1344" fill="#DB3A3A"></path>
                        <path d="M9.63,22.103 C9.77,23.598 11.03,24.766 12.56,24.766 C14.09,24.766 15.35,23.598 15.5,22.103 L9.63,22.103" id="Fill-1345" fill="#7D8F8B"></path>
                        <path d="M22.37,22.33 C22.44,23.084 23.08,23.673 23.85,23.673 C24.62,23.673 25.26,23.084 25.33,22.33 L22.37,22.33" id="Fill-1346" fill="#7D8F8B"></path>
                        <path d="M94.8,22.103 C94.66,23.598 93.4,24.766 91.87,24.766 C90.34,24.766 89.08,23.598 88.93,22.103 L94.8,22.103" id="Fill-1347" fill="#7D8F8B"></path>
                        <path d="M82.06,22.33 C81.99,23.084 81.35,23.673 80.58,23.673 C79.8,23.673 79.17,23.084 79.1,22.33 L82.06,22.33" id="Fill-1348" fill="#7D8F8B"></path>
                        <polygon id="Fill-1349" fill="#7D8F8B" points="91.5 13.931 92.41 13.931 92.41 1.912 91.5 1.912"></polygon>
                        <polygon id="Fill-1350" fill="#7D8F8B" points="80.58 13.749 81.29 13.749 81.29 8.325 80.58 8.325"></polygon>
                        <path d="M93.69,1.958 C93.69,2.939 92.89,3.734 91.91,3.734 C90.93,3.734 90.13,2.939 90.13,1.958 C90.13,0.977 90.93,0.183 91.91,0.183 C92.89,0.183 93.69,0.977 93.69,1.958" id="Fill-1351" fill="#9DABAA"></path>
                        <path d="M82.29,7.42 C82.29,8.199 81.67,8.83 80.9,8.83 C80.14,8.83 79.52,8.199 79.52,7.42 C79.52,6.641 80.14,6.01 80.9,6.01 C81.67,6.01 82.29,6.641 82.29,7.42" id="Fill-1352" fill="#9DABAA"></path>
                        <path d="M103.88,2.641 L91.96,2.095 L80.03,2.641 C79.53,2.641 79.12,2.233 79.12,1.73 C79.12,1.228 79.53,0.82 80.03,0.82 L91.96,1.366 L103.88,0.82 C104.39,0.82 104.79,1.228 104.79,1.73 C104.79,2.233 104.39,2.641 103.88,2.641" id="Fill-1353" fill="#7D8F8B"></path>
                        <path d="M86.01,8.104 L80.94,7.715 L75.86,8.104 C75.65,8.104 75.48,7.814 75.48,7.456 C75.48,7.099 75.65,6.809 75.86,6.809 L80.94,7.198 L86.01,6.809 C86.23,6.809 86.4,7.099 86.4,7.456 C86.4,7.814 86.23,8.104 86.01,8.104" id="Fill-1354" fill="#7D8F8B"></path>
                        <polygon id="Fill-1355" fill="#7D8F8B" points="12.38 13.749 13.29 13.749 13.29 1.73 12.38 1.73"></polygon>
                        <polygon id="Fill-1356" fill="#7D8F8B" points="23.5 13.567 24.21 13.567 24.21 8.142 23.5 8.142"></polygon>
                        <path d="M11.1,1.776 C11.1,2.757 11.9,3.552 12.88,3.552 C13.86,3.552 14.65,2.757 14.65,1.776 C14.65,0.795 13.86,0 12.88,0 C11.9,0 11.1,0.795 11.1,1.776" id="Fill-1357" fill="#9DABAA"></path>
                        <path d="M22.5,7.238 C22.5,8.017 23.12,8.649 23.89,8.649 C24.65,8.649 25.27,8.017 25.27,7.238 C25.27,6.459 24.65,5.827 23.89,5.827 C23.12,5.827 22.5,6.459 22.5,7.238" id="Fill-1358" fill="#9DABAA"></path>
                        <path d="M0.91,2.459 L12.83,1.912 L24.76,2.459 C25.26,2.459 25.67,2.051 25.67,1.548 C25.67,1.046 25.26,0.638 24.76,0.638 L12.83,1.184 L0.91,0.638 C0.4,0.638 0,1.046 0,1.548 C0,2.051 0.4,2.459 0.91,2.459" id="Fill-1359" fill="#7D8F8B"></path>
                        <path d="M18.78,7.922 L23.85,7.534 L28.93,7.922 C29.14,7.922 29.31,7.632 29.31,7.274 C29.31,6.917 29.14,6.627 28.93,6.627 L23.85,7.015 L18.78,6.627 C18.56,6.627 18.39,6.917 18.39,7.274 C18.39,7.632 18.56,7.922 18.78,7.922" id="Fill-1360" fill="#7D8F8B"></path>
                        <path d="M76.07,21.442 L100.64,21.442 C102.41,21.254 103.79,19.756 103.79,17.935 C103.79,15.988 102.21,14.409 100.27,14.409 L63.34,14.409 C61.39,14.409 59.82,15.988 59.82,17.935 C59.82,19.883 61.39,21.462 63.34,21.462 L76.07,21.462 L76.07,21.442" id="Fill-1361" fill="#9DABAA"></path>
                        <path d="M16.25,21.442 L40.82,21.442 C42.59,21.254 43.97,19.756 43.97,17.935 C43.97,15.988 42.39,14.409 40.45,14.409 L3.52,14.409 C1.58,14.409 1.13686838e-13,15.988 1.13686838e-13,17.935 C1.13686838e-13,19.883 1.58,21.462 3.52,21.462 L16.25,21.462 L16.25,21.442" id="Fill-1362" fill="#9DABAA"></path>
                        <path d="M77.68,47.073 L26.38,47.073 C25.98,47.073 25.66,46.75 25.66,46.352 L25.66,46.119 C25.66,45.722 25.98,45.399 26.38,45.399 L77.68,45.399 C78.08,45.399 78.4,45.722 78.4,46.119 L78.4,46.352 C78.4,46.75 78.08,47.073 77.68,47.073" id="Fill-1363" fill="#DB3A3A"></path>
                    </g>
                </g>
            </g>
        </g>
    </g>
</svg>