<?xml version="1.0" encoding="UTF-8"?>
<svg width="197px" height="18px" viewBox="0 0 197 18" version="1.1" xmlns="http://www.w3.org/2000/svg" xmlns:xlink="http://www.w3.org/1999/xlink">
    <title>hot_and_cool_cafe_logo</title>
    <g id="Page-1" stroke="none" stroke-width="1" fill="none" fill-rule="evenodd">
        <g id="Desktop-HD-BizDay" transform="translate(-622.000000, -4134.000000)" fill="#000000" fill-rule="nonzero">
            <g id="Group-11" transform="translate(312.000000, 3321.000000)">
                <g id="Group-8" transform="translate(285.000000, 696.000000)">
                    <g id="hot_and_cool_cafe_logo" transform="translate(25.000000, 117.000000)">
                        <path d="M0.5,0.357617119 L0.5,17.8266104 L3.92648575,17.8266104 L3.92648575,10.8260186 L9.64434417,10.8260186 L9.64434417,17.8266104 L13.0708752,17.8266104 L13.0708752,0.357617119 L9.64434417,0.357617119 L9.64434417,7.34740794 L3.92648575,7.34740794 L3.92648575,0.357617119 L0.5,0.357617119 Z M23.2442831,0.216732324 C20.8574252,0.216732324 18.8099435,1.09451812 17.1126103,2.82836746 C15.4152771,4.58399453 14.5666105,6.67548873 14.5666105,9.10294254 C14.5666105,11.5520354 15.4152771,13.6327101 17.1126103,15.3666056 C18.7993521,17.0788622 20.8467433,17.94581 23.2442831,17.94581 C25.6311409,17.94581 27.6785321,17.0896817 29.3758653,15.3666056 C31.0731985,13.643622 31.9324565,11.5520354 31.9324565,9.10294254 C31.9324565,6.66466922 31.0731985,4.57317502 29.3758653,2.82836746 C27.6679408,1.09451812 25.6205495,0.216732324 23.2442831,0.216732324 Z M23.2336917,3.76041724 C24.6657883,3.76041724 25.8856956,4.28058592 26.9040955,5.32092326 C27.9331774,6.37208012 28.4423773,7.62917753 28.4423773,9.09212303 C28.4423773,10.565888 27.9331774,11.8121659 26.9040955,12.8525033 C25.8856956,13.8820211 24.6551969,14.4021898 23.2336917,14.4021898 C21.7909132,14.4021898 20.5710059,13.8820211 19.552606,12.8525033 C18.534206,11.8121659 18.0249156,10.5550685 18.0249156,9.09212303 C18.0249156,7.63999704 18.534206,6.38289963 19.552606,5.33174277 C20.560324,4.29140543 21.7909132,3.76041724 23.2336917,3.76041724 Z M31.1156545,0.357617119 L31.1156545,3.83624628 L35.3271229,3.83624628 L35.3271229,17.8266104 L38.7748366,17.8266104 L38.7748366,3.83624628 L42.9758042,3.83624628 L42.9758042,0.357617119 L31.1156545,0.357617119 Z M58.1457084,4.83321312 L61.5615575,4.09628438 C61.0948135,2.01564667 59.227747,0.173389558 56.8090246,0.173389558 C55.451158,0.173389558 53.9341495,1.07284211 53.2658076,1.75556234 C52.5656916,2.47076883 51.9609883,3.3486286 51.9609883,4.74656457 C51.9928529,5.84109194 52.5656916,7.29321793 53.0643002,7.96504467 C52.9157496,8.0734247 52.8203368,8.16016571 52.7778808,8.20353622 C52.2474076,8.72361242 51.7382077,9.29797111 51.2608723,9.92651982 C50.7728551,10.5550685 50.5288917,11.3786458 50.507709,12.3865246 C50.507709,13.9470306 51.048683,15.2691376 52.1519949,16.352753 C53.2552162,17.4581923 54.6024914,18 56.19373,18 C56.8408892,18 57.5728698,17.9024395 58.3790804,17.6857719 C59.5989877,17.3714513 60.3415597,16.9271117 61.0311749,16.1252659 C61.1796349,16.2661044 61.3493683,16.3961235 61.5403748,16.515323 C62.5375015,17.1222327 63.7892734,17.8808005 65.4654239,17.8808005 L65.4760153,14.6297694 C64.5531186,14.6730474 63.5771747,13.9794892 62.9724714,13.57852 C63.5347187,12.2889641 63.630222,10.8584771 63.6832693,9.05957203 L60.4689276,9.10294254 C60.4264716,10.0132608 60.4476543,10.7392776 60.2991943,11.4653868 C60.0658223,11.2703582 59.7581297,10.9452181 59.3550244,10.5008785 C58.4957664,9.55810168 57.7425126,8.85372395 57.1166266,7.98677616 C56.3422806,6.9356193 56.4483752,7.07645786 55.843672,5.87355046 C55.567844,5.33174277 55.4405666,4.96323217 55.4830226,4.76820359 C55.6103,4.07464536 56.0451794,3.72786624 56.8090246,3.72786624 C57.4985492,3.72786624 58.0077492,4.23721541 58.1457084,4.83321312 Z M56.2043213,14.5647598 C55.4192934,14.5647598 54.8571366,14.4021898 54.5282614,14.0662302 C54.1782034,13.7520021 53.7750075,13.0909024 53.7750075,12.4407146 C53.7538248,11.833805 53.8916935,11.3786458 54.1993861,11.0644177 C54.4963968,10.7610091 54.8040893,10.490059 55.1222827,10.2516599 C55.5890267,11.0535982 56.2043213,11.8013464 56.9575752,12.4949047 C57.7107385,13.1884629 58.1880738,13.6218905 58.3896718,13.7952801 L58.3896718,13.7844606 C58.1244352,14.1854297 56.8514805,14.5647598 56.2043213,14.5647598 Z M87.8277663,15.3775176 L85.3772697,12.8741423 C84.3588698,13.9144796 83.1282806,14.4346483 81.6855926,14.4346483 C80.2534055,14.4346483 79.0334982,13.9144796 78.0256896,12.8849618 C77.0072897,11.8446245 76.4980897,10.5876195 76.4980897,9.12458155 C76.4980897,7.67245557 77.0072897,6.41545063 78.0256896,5.3642013 C79.0229068,4.32386395 80.2534055,3.80369528 81.696184,3.80369528 C83.1176893,3.80369528 84.3376871,4.32386395 85.3772697,5.3642013 L87.8277663,2.86091846 C86.406261,1.46297324 84.3058225,0.270913093 81.6750013,0.270913093 L81.6855926,0.216732324 C79.3093262,0.216732324 77.261935,1.09451812 75.5646017,2.82836746 C73.8672685,4.58399453 73.0185114,6.67548873 73.0185114,9.10294254 C73.0185114,11.5520354 73.8672685,13.6327101 75.5646017,15.3666056 C77.2512531,17.0788622 79.2880529,17.94581 81.6750013,17.94581 C84.3482785,17.94581 86.4275343,16.7970926 87.8277663,15.3775176 Z M96.0595155,0.216732324 C93.6732913,0.216732324 91.6256285,1.09451812 89.9282048,2.82836746 C88.2308716,4.58399453 87.382205,6.67548873 87.382205,9.10294254 C87.382205,11.5520354 88.2308716,13.6327101 89.9282048,15.3666056 C91.6147656,17.0788622 93.6624284,17.94581 96.0595155,17.94581 C98.4466449,17.94581 100.494308,17.0896817 102.191641,15.3666056 C103.888974,13.643622 104.748051,11.5520354 104.748051,9.10294254 C104.748051,6.66466922 103.888974,4.57317502 102.191641,2.82836746 C100.483445,1.09451812 98.435782,0.216732324 96.0595155,0.216732324 Z M96.0495578,3.76041724 C97.4816544,3.76041724 98.7010186,4.28058592 99.7194185,5.32092326 C100.748681,6.37208012 101.258334,7.62917753 101.258334,9.09212303 C101.258334,10.565888 100.748681,11.8121659 99.7194185,12.8525033 C98.7010186,13.8820211 97.4707915,14.4021898 96.0495578,14.4021898 C94.6065983,14.4021898 93.3863288,13.8820211 92.3679289,12.8525033 C91.349529,11.8121659 90.8407816,10.5550685 90.8407816,9.09212303 C90.8407816,7.63999704 91.349529,6.38289963 92.3679289,5.33174277 C93.3763711,4.29140543 94.6065983,3.76041724 96.0495578,3.76041724 Z M114.26398,0.216732324 C111.87685,0.216732324 109.829188,1.09451812 108.131854,2.82836746 C106.434521,4.58399453 105.586307,6.67548873 105.586307,9.10294254 C105.586307,11.5520354 106.434521,13.6327101 108.131854,15.3666056 C109.81923,17.0788622 111.865988,17.94581 114.26398,17.94581 C116.650204,17.94581 118.697867,17.0896817 120.3952,15.3666056 C122.092533,13.643622 122.95161,11.5520354 122.95161,9.10294254 C122.95161,6.66466922 122.092533,4.57317502 120.3952,2.82836746 C118.687004,1.09451812 116.640246,0.216732324 114.26398,0.216732324 Z M114.253117,3.76041724 C115.685214,3.76041724 116.905483,4.28058592 117.923883,5.32092326 C118.952241,6.37208012 119.461893,7.62917753 119.461893,9.09212303 C119.461893,10.565888 118.952241,11.8121659 117.923883,12.8525033 C116.905483,13.8820211 115.674351,14.4021898 114.253117,14.4021898 C112.810157,14.4021898 111.590793,13.8820211 110.572393,12.8525033 C109.553993,11.8121659 109.044341,10.5550685 109.044341,9.09212303 C109.044341,7.63999704 109.553993,6.38289963 110.572393,5.33174277 C111.57993,4.29140543 112.810157,3.76041724 114.253117,3.76041724 Z M124.426253,0.357617119 L124.426253,17.8266104 L134.737892,17.8266104 L134.737892,14.3371803 L127.863466,14.3371803 L127.863466,0.357617119 L124.426253,0.357617119 Z M156.760677,15.3775176 L154.310181,12.8741423 C153.291781,13.9144796 152.061554,14.4346483 150.618594,14.4346483 C149.186497,14.4346483 147.966228,13.9144796 146.958691,12.8849618 C145.940291,11.8446245 145.430639,10.5876195 145.430639,9.12458155 C145.430639,7.67245557 145.940291,6.41545063 146.958691,5.3642013 C147.955365,4.32386395 149.186497,3.80369528 150.629457,3.80369528 C152.050691,3.80369528 153.27096,4.32386395 154.310181,5.3642013 L156.760677,2.86091846 C155.339443,1.46297324 153.238371,0.270913093 150.607731,0.270913093 L150.618594,0.216732324 C148.242328,0.216732324 146.194665,1.09451812 144.497332,2.82836746 C142.799998,4.58399453 141.951784,6.67548873 141.951784,9.10294254 C141.951784,11.5520354 142.799998,13.6327101 144.497332,15.3666056 C146.183802,17.0788622 148.220602,17.94581 150.607731,17.94581 C153.280918,17.94581 155.360264,16.7970926 156.760677,15.3775176 Z M157.29115,17.8266104 L161.004463,17.8266104 L162.16046,15.1715771 L168.016486,15.1715771 L169.172483,17.8266104 L172.895753,17.8266104 L165.08802,0 L157.29115,17.8266104 Z M163.518326,12.072204 L165.098883,8.37683331 L166.658619,12.072204 L163.518326,12.072204 Z M174.392122,0.314265106 L174.392122,17.8482495 L177.828429,17.8482495 L177.828429,10.8368381 L182.984701,10.8368381 L182.984701,7.33649596 L177.828429,7.33649596 L177.828429,3.81460726 L184.702855,3.81460726 L184.702855,0.314265106 L174.392122,0.314265106 Z M186.188361,0.314265106 L186.188361,17.8482495 L196.5,17.8482495 L196.5,14.3588193 L189.625574,14.3588193 L189.625574,10.8368381 L194.780941,10.8368381 L194.780941,7.33649596 L189.625574,7.33649596 L189.625574,3.81460726 L196.5,3.81460726 L196.5,0.314265106 L186.188361,0.314265106 Z" id="Shape"></path>
                    </g>
                </g>
            </g>
        </g>
    </g>
</svg>