<svg width="53" height="53" viewBox="0 0 53 53" fill="none" xmlns="http://www.w3.org/2000/svg">
<mask id="mask0_0_8914" style="mask-type:alpha" maskUnits="userSpaceOnUse" x="0" y="0" width="53" height="53">
<path fill-rule="evenodd" clip-rule="evenodd" d="M0 0H53V53H0V0Z" fill="white"/>
</mask>
<g mask="url(#mask0_0_8914)">
<path fill-rule="evenodd" clip-rule="evenodd" d="M3.39243 34.5582C3.39243 35.0253 3.44886 35.4599 3.38223 35.8746C3.14298 37.3652 3.9238 38.2383 5.13546 38.875C5.37922 39.0031 5.61776 39.1428 5.86862 39.2555C9.9399 41.0877 14.2464 41.4864 18.6428 41.3021C19.4997 41.2663 20.3533 41.153 21.1835 41.078C20.9836 39.7557 20.7951 38.5098 20.6082 37.2734C14.6656 37.7259 8.86909 37.3338 3.39243 34.5582V34.5582ZM22.356 29.7118C19.1699 30.2207 15.9465 30.2928 12.7182 29.9199C9.478 29.5457 6.32863 28.8356 3.39243 27.2049C3.39243 27.7428 3.44578 28.1819 3.3827 28.6039C3.16835 30.0359 3.89701 30.9046 5.06907 31.5319C5.38135 31.6989 5.68723 31.8822 6.01232 32.0209C10.7499 34.0423 15.6978 34.3546 20.7486 33.7868C20.878 33.7721 21.0516 33.6077 21.0971 33.4765C21.5258 32.2387 21.9313 30.993 22.356 29.7118V29.7118ZM3.39243 19.9581C3.39243 20.6594 3.43487 21.2702 3.38223 21.8728C3.30801 22.7183 3.66108 23.3621 4.33615 23.7632C5.31164 24.3423 6.30444 24.9538 7.37146 25.3103C12.7938 27.1221 18.3226 27.1573 23.8897 26.0817C24.4779 25.968 25.1786 25.8758 25.5898 25.5096C27.0158 24.2404 28.5663 23.1929 30.2906 22.3833C30.4177 22.3236 30.5991 22.1927 30.6033 22.0889C30.6313 21.4002 30.6178 20.7099 30.6178 19.9599C26.3054 22.2653 21.7184 22.8737 17.0282 22.8742C12.3201 22.8745 7.71291 22.2748 3.39243 19.9581V19.9581ZM3.39243 12.6692C3.39243 13.3408 3.43534 13.9504 3.38247 14.5516C3.30114 15.4752 3.76422 16.0657 4.45826 16.5675C5.59286 17.388 6.87423 17.89 8.20327 18.2753C13.3266 19.7596 18.5088 19.8358 23.7149 18.8073C25.7501 18.4053 27.757 17.8431 29.4631 16.5974C29.9285 16.2577 30.4355 15.741 30.5564 15.2211C30.7404 14.4284 30.6045 13.5621 30.6045 12.6845C26.3258 14.9215 21.7419 15.5643 17.0546 15.566C12.3461 15.5676 7.73638 14.9505 3.39243 12.6692V12.6692ZM17.0244 12.165C20.0164 12.1653 22.9666 11.8557 25.8414 10.9913C27.2645 10.5634 28.635 10.0144 29.8028 9.07216C30.8886 8.1962 30.9391 7.33039 29.8066 6.53039C28.8551 5.85874 27.807 5.23592 26.708 4.87167C20.8844 2.94211 14.9739 2.92866 9.0436 4.34982C7.27733 4.77305 5.55279 5.35128 4.13341 6.56319C3.15673 7.39715 3.11998 8.21673 4.15452 8.99501C4.90001 9.55579 5.73465 10.0451 6.59965 10.3942C9.93729 11.7411 13.4499 12.1539 17.0244 12.165V12.165ZM36.8317 49.6616C43.8339 49.6892 49.5581 44.0102 49.5712 37.0228C49.5842 30.0555 43.8728 24.3647 36.8544 24.3522C29.9081 24.3397 24.1704 30.0251 24.1199 36.9707C24.0696 43.8897 29.8232 49.6338 36.8317 49.6616V49.6616ZM34.0645 21.2138C36.9588 20.709 39.7261 20.9303 42.401 21.9393C46.8858 23.6308 50.104 26.6902 51.8048 31.1473C53.9974 36.8926 53.1782 42.3347 49.3061 47.0967C45.8079 51.3989 41.1106 53.4108 35.5128 52.9305C29.8028 52.4407 25.577 49.5609 22.7361 44.6401C22.5696 44.3516 22.4058 44.26 22.0883 44.3143C18.8507 44.8687 15.6006 44.801 12.3552 44.4261C9.22073 44.0642 6.16668 43.3803 3.41424 41.7546C1.94602 40.8871 0.674368 39.8029 0.198714 38.075C0.060476 37.5728 0.0177952 37.0304 0.0170839 36.5062C0.00665078 27.0615 0.0239602 17.6168 1.15441e-05 8.17214C-0.00639058 5.64217 1.44476 4.108 3.44056 2.94612C6.03816 1.43389 8.92078 0.782289 11.8669 0.366605C16.0672 -0.226018 20.2523 -0.0960276 24.407 0.726613C26.9335 1.22699 29.382 1.9706 31.517 3.49085C33.1801 4.67491 34.0972 6.21733 34.0764 8.31581C34.0361 12.3802 34.0645 16.445 34.0645 20.5094V21.2138Z" fill="black"/>
</g>
<path fill-rule="evenodd" clip-rule="evenodd" d="M42.9997 31.9692C42.8728 32.1854 42.6992 32.6856 42.3613 33.0247C39.2419 36.1556 36.0949 39.2597 32.9529 42.3686C32.4497 42.8666 31.8554 43.1526 31.1376 42.9152C30.5198 42.711 30.0417 42.2917 30.0023 41.6266C29.9777 41.2113 30.1525 40.7763 30.2834 40.3643C30.3317 40.212 30.5058 40.0959 30.6308 39.9714C33.7884 36.8238 36.9451 33.6752 40.1079 30.5328C40.6427 30.0016 41.3871 29.863 42.0106 30.1377C42.5584 30.3793 43.0132 31.091 42.9997 31.9692Z" fill="black"/>
<path fill-rule="evenodd" clip-rule="evenodd" d="M41.4712 44C40.1541 43.995 39.0152 42.8603 39.0002 41.5383C38.984 40.1345 40.1068 38.9968 41.5057 39C42.8841 39.0029 43.9978 40.1116 44 41.4838C44.0022 42.8757 42.8673 44.0052 41.4712 44Z" fill="black"/>
<path fill-rule="evenodd" clip-rule="evenodd" d="M30 32.5078C30.0047 31.124 31.1022 30.0147 32.4806 30.0001C33.8518 29.9858 34.9939 31.1038 35 32.4663C35.0063 33.8735 33.8756 35.0156 32.4918 34.9998C31.1035 34.9843 29.9953 33.876 30 32.5078Z" fill="black"/>
</svg>
