<?xml version="1.0" encoding="UTF-8"?>
<svg width="152px" height="42px" viewBox="0 0 152 42" version="1.1" xmlns="http://www.w3.org/2000/svg" xmlns:xlink="http://www.w3.org/1999/xlink">
    <title>vazell_logo</title>
    <defs>
        <linearGradient x1="53.9951248%" y1="-16.8124474%" x2="53.9951248%" y2="150.74645%" id="linearGradient-1">
            <stop stop-color="#FF002B" offset="0%"></stop>
            <stop stop-color="#EB0067" offset="100%"></stop>
        </linearGradient>
    </defs>
    <g id="Page-1" stroke="none" stroke-width="1" fill="none" fill-rule="evenodd">
        <g id="Desktop-HD-BizDay" transform="translate(-359.000000, -4122.000000)">
            <g id="Group-11" transform="translate(312.000000, 3321.000000)">
                <g id="vazell_logo" transform="translate(47.000000, 801.000000)">
                    <g id="Combined-Shape-Copy" transform="translate(13.500000, 0.000000)" fill-rule="nonzero">
                        <g id="path-2-link" fill="#000000">
                            <path d="M97.4181369,10.9521531 C106.763263,10.9521531 110.76419,18.9043062 110.749823,25.8086124 C110.750768,27.0114551 110.646865,28.2121218 110.439205,29.3971292 L92.1028258,29.3971292 C92.7527959,31.6004785 94.912141,33.0933014 98.205323,33.1004785 C100.935247,33.0068476 103.610759,32.3157802 106.041073,31.076555 L109.023714,38.2535885 C105.638348,40.5858514 101.585471,41.7689893 97.4686902,41.6267943 C88.945181,41.6406675 82.0241946,34.7851616 82.0101924,26.3145933 C81.9962751,17.844025 88.8946277,10.9660263 97.4181369,10.9521531 Z M23.328768,9.65311003 L10.6037978,41.6267943 L0.218720081,41.6267943 L12.9436902,9.65311003 L23.328768,9.65311003 Z M44.5466807,12.4736842 L44.5466807,11.2248804 L52.9962918,11.2248804 L52.9312947,41.3038278 L45.1388754,41.3038278 L45.1388754,39.3947368 C42.7963064,40.7726786 40.1190478,41.4874747 37.3970094,41.4617225 C29.158101,41.0506437 22.6948621,34.284316 22.7102371,26.0862822 C22.7257222,17.8882485 29.2143864,11.1459964 37.4547848,10.7655502 C39.9253769,10.735827 42.3639218,11.323168 44.5466807,12.4736842 Z M123.915251,0 L123.821367,41.1602871 L114.649566,41.1602871 L114.743451,0 L123.915251,0 Z M137.759614,0 L137.665729,41.1602871 L128.49393,41.1602871 L128.587814,0 L137.759614,0 Z M57.8710676,11.2535885 L79.2117525,11.2966507 L79.2117525,17.7559809 L69.2311004,31.9665072 L79.175643,31.9665072 L79.175643,41.0239234 L57.8349582,40.9736842 L57.8349582,34.0047847 L67.6567283,20.2679426 L57.8710676,20.2464115 L57.8710676,11.2535885 Z M34.226481,20.5245201 C32.2380769,21.6952653 31.0503325,23.850413 31.128409,26.145933 C31.1071799,27.8143425 31.758765,29.4217932 32.9378081,30.6096936 C34.1168516,31.797594 35.725261,32.4671151 37.4042316,32.4688995 L37.4042316,32.5047847 C39.10761,32.5344887 40.7496258,31.8731312 41.9515537,30.673252 C43.153481,29.4733728 43.8115353,27.83858 43.7739385,26.145933 C43.8520151,23.850413 42.6642706,21.6952653 40.6758666,20.5245201 C38.6874625,19.3537749 36.214885,19.3537749 34.226481,20.5245201 Z M92.1533791,22.4641148 L101.541836,22.4641148 C101.361289,21.0933014 99.8085824,19.5933014 96.9920455,19.5933014 C94.9543121,19.5324876 93.0663392,20.6526347 92.1533791,22.4641148 Z" id="path-2"></path>
                        </g>
                        <g id="path-2-link" fill="url(#linearGradient-1)">
                            <path d="M97.4181369,10.9521531 C106.763263,10.9521531 110.76419,18.9043062 110.749823,25.8086124 C110.750768,27.0114551 110.646865,28.2121218 110.439205,29.3971292 L92.1028258,29.3971292 C92.7527959,31.6004785 94.912141,33.0933014 98.205323,33.1004785 C100.935247,33.0068476 103.610759,32.3157802 106.041073,31.076555 L109.023714,38.2535885 C105.638348,40.5858514 101.585471,41.7689893 97.4686902,41.6267943 C88.945181,41.6406675 82.0241946,34.7851616 82.0101924,26.3145933 C81.9962751,17.844025 88.8946277,10.9660263 97.4181369,10.9521531 Z M23.328768,9.65311003 L10.6037978,41.6267943 L0.218720081,41.6267943 L12.9436902,9.65311003 L23.328768,9.65311003 Z M44.5466807,12.4736842 L44.5466807,11.2248804 L52.9962918,11.2248804 L52.9312947,41.3038278 L45.1388754,41.3038278 L45.1388754,39.3947368 C42.7963064,40.7726786 40.1190478,41.4874747 37.3970094,41.4617225 C29.158101,41.0506437 22.6948621,34.284316 22.7102371,26.0862822 C22.7257222,17.8882485 29.2143864,11.1459964 37.4547848,10.7655502 C39.9253769,10.735827 42.3639218,11.323168 44.5466807,12.4736842 Z M123.915251,0 L123.821367,41.1602871 L114.649566,41.1602871 L114.743451,0 L123.915251,0 Z M137.759614,0 L137.665729,41.1602871 L128.49393,41.1602871 L128.587814,0 L137.759614,0 Z M57.8710676,11.2535885 L79.2117525,11.2966507 L79.2117525,17.7559809 L69.2311004,31.9665072 L79.175643,31.9665072 L79.175643,41.0239234 L57.8349582,40.9736842 L57.8349582,34.0047847 L67.6567283,20.2679426 L57.8710676,20.2464115 L57.8710676,11.2535885 Z M34.226481,20.5245201 C32.2380769,21.6952653 31.0503325,23.850413 31.128409,26.145933 C31.1071799,27.8143425 31.758765,29.4217932 32.9378081,30.6096936 C34.1168516,31.797594 35.725261,32.4671151 37.4042316,32.4688995 L37.4042316,32.5047847 C39.10761,32.5344887 40.7496258,31.8731312 41.9515537,30.673252 C43.153481,29.4733728 43.8115353,27.83858 43.7739385,26.145933 C43.8520151,23.850413 42.6642706,21.6952653 40.6758666,20.5245201 C38.6874625,19.3537749 36.214885,19.3537749 34.226481,20.5245201 Z M92.1533791,22.4641148 L101.541836,22.4641148 C101.361289,21.0933014 99.8085824,19.5933014 96.9920455,19.5933014 C94.9543121,19.5324876 93.0663392,20.6526347 92.1533791,22.4641148 Z" id="path-2"></path>
                        </g>
                    </g>
                    <g id="Path-Copy-10" transform="translate(4.500000, 9.000000)">
                        <g id="path-4-link" fill="#000000" fill-rule="nonzero">
                            <polygon id="path-4" points="0.00956937778 0.22816019 1.78096756 0.22816019 11.605529 24.578793 10.6677299 26.649946"></polygon>
                        </g>
                        <g id="path-4-link" fill="#9200EB">
                            <polygon id="path-4" points="0.00956937778 0.22816019 1.78096756 0.22816019 11.605529 24.578793 10.6677299 26.649946"></polygon>
                        </g>
                    </g>
                    <g id="Path-Copy-11" transform="translate(0.500000, 9.000000)">
                        <g id="path-6-link" fill="#000000" fill-rule="nonzero">
                            <polygon id="path-6" points="4.74065231e-14 0.227493055 1.74372009 0.227493055 13.8032296 30.4404432 12.9093899 32.6218837"></polygon>
                        </g>
                        <g id="path-6-link" fill="#5900FF">
                            <polygon id="path-6" points="4.74065231e-14 0.227493055 1.74372009 0.227493055 13.8032296 30.4404432 12.9093899 32.6218837"></polygon>
                        </g>
                    </g>
                    <g id="Path-Copy-12" transform="translate(7.500000, 10.000000)">
                        <g id="path-8-link" fill="#000000" fill-rule="nonzero">
                            <polygon id="path-8" points="0.0187226957 0.2216599 1.78073643 0.2216599 9.60786352 19.5637652 8.75598087 21.7317814"></polygon>
                        </g>
                        <g id="path-8-link" fill="#03B103">
                            <polygon id="path-8" points="0.0187226957 0.2216599 1.78073643 0.2216599 9.60786352 19.5637652 8.75598087 21.7317814"></polygon>
                        </g>
                    </g>
                    <polygon id="Path-Copy-13" fill="#05C7F2" fill-rule="nonzero" points="11.5 10 13.2761194 10 19.5 24.804868 18.6268657 27"></polygon>
                </g>
            </g>
        </g>
    </g>
</svg>