<?xml version="1.0" encoding="UTF-8"?>
<svg width="103px" height="73px" viewBox="0 0 103 73" version="1.1" xmlns="http://www.w3.org/2000/svg" xmlns:xlink="http://www.w3.org/1999/xlink">
    <title>youtube-icon</title>
    <g id="Page-1" stroke="none" stroke-width="1" fill="none" fill-rule="evenodd">
        <g id="Desktop-HD" transform="translate(-48.000000, -410.000000)">
            <g id="Info" transform="translate(48.000000, 48.000000)">
                <g id="youtube-icon" transform="translate(-0.000189, 362.114458)">
                    <polygon id="Fill-4" fill="#FFFFFF" points="24.507189 59.1615419 75.174189 59.1615419 75.174189 8.49554187 24.507189 8.49554187"></polygon>
                    <path d="M41.625189,19.4711419 L41.625189,51.4231419 C50.390189,46.0001419 58.724189,40.8431419 67.439189,35.4501419 C58.720189,30.0531419 50.388189,24.8951419 41.625189,19.4711419 M51.687189,71.4321419 C39.880189,70.9091419 28.296189,70.6861419 16.763189,69.7971419 C6.23018896,68.9851419 2.11418896,64.9451419 1.05018896,54.5181419 C-0.321811039,41.0821419 -0.498811039,27.5941419 1.42018896,14.1671419 C2.54618896,6.29114187 7.43718896,1.55814187 15.494189,1.20014187 C29.582189,0.572141871 43.685189,0.0681418708 57.784189,0.00214187084 C67.501189,-0.0428581292 77.228189,0.630141871 86.939189,1.18014187 C95.692189,1.67814187 100.147189,6.00714187 101.295189,14.7751419 C103.105189,28.6021419 103.163189,42.4341419 101.326189,56.2651419 C100.251189,64.3581419 95.437189,69.2051419 87.327189,69.7071419 C75.389189,70.4471419 63.431189,70.8791419 51.687189,71.4321419" id="Fill-5" fill="#E21A1A"></path>
                </g>
            </g>
        </g>
    </g>
</svg>